{"glyphs":{"0":{"ha":814,"x_min":69,"x_max":744,"o":"m 407 1038 q 540 997 478 1038 q 647 885 601 956 q 719 721 693 815 q 744 519 744 626 q 719 317 744 411 q 647 152 693 222 q 540 41 601 82 q 407 0 478 0 q 274 41 336 0 q 167 152 213 82 q 95 317 121 222 q 69 519 69 411 q 95 721 69 626 q 167 885 121 815 q 274 997 213 956 q 407 1038 336 1038 m 407 158 q 489 187 454 158 q 547 264 524 215 q 583 378 571 313 q 594 517 594 443 q 583 657 594 592 q 547 771 571 722 q 489 848 524 819 q 407 876 454 876 q 326 848 361 876 q 268 771 292 819 q 232 657 244 722 q 219 517 219 592 q 232 378 219 443 q 268 264 244 313 q 326 187 292 215 q 407 158 361 158 z "},"1":{"ha":565,"x_min":69,"x_max":468,"o":"m 317 0 l 317 732 l 158 610 l 69 732 l 468 1033 l 468 0 l 317 0 l 317 0 z "},"2":{"ha":756,"x_min":69,"x_max":686,"o":"m 686 151 l 686 0 l 69 0 l 146 122 q 238 274 203 214 q 299 375 274 333 q 334 434 318 407 q 368 489 350 461 q 408 549 386 517 q 458 624 429 581 q 484 666 471 642 q 505 717 497 690 q 511 770 513 743 q 493 819 510 797 q 427 861 469 849 q 347 861 385 874 q 294 776 294 843 l 133 700 l 133 776 q 176 922 133 857 q 296 1014 218 988 q 472 1017 382 1042 q 556 978 518 1004 q 622 917 594 953 q 672 742 679 843 q 592 535 665 640 q 542 460 563 492 q 506 403 522 429 q 473 350 489 376 q 438 292 457 324 q 401 229 422 265 q 354 151 379 193 l 686 151 z "},"3":{"ha":810,"x_min":69,"x_max":742,"o":"m 354 1 q 69 126 213 17 l 167 254 q 368 160 275 171 q 494 190 442 153 q 568 294 547 229 q 571 421 590 363 q 499 512 551 481 q 356 540 447 543 l 353 540 l 214 540 l 404 879 l 135 879 l 135 1028 l 665 1028 l 479 689 q 596 639 543 672 q 724 471 690 575 q 740 357 742 415 q 721 244 739 299 q 669 141 703 189 q 588 60 635 93 q 392 0 500 0 q 372 0 381 0 q 354 1 363 0 z "},"4":{"ha":794,"x_min":69,"x_max":725,"o":"m 490 236 l 69 236 l 69 388 l 379 1031 l 639 1031 l 639 388 l 725 388 l 725 236 l 639 236 l 639 0 l 490 0 l 490 236 l 490 236 m 490 914 l 488 914 l 247 388 l 490 388 l 490 914 l 490 914 z "},"5":{"ha":763,"x_min":69,"x_max":693,"o":"m 610 1032 l 610 883 l 313 883 l 296 689 q 469 660 394 689 q 593 583 543 632 q 668 471 643 535 q 693 336 693 407 q 665 201 693 263 q 590 95 638 140 q 483 25 543 50 q 357 0 422 0 q 231 22 285 0 q 142 69 178 43 q 69 139 99 100 l 154 242 q 292 158 222 175 q 417 161 361 142 q 509 228 474 181 q 544 336 544 275 q 519 442 544 401 q 459 503 494 482 q 387 532 424 525 q 325 539 350 539 l 136 539 l 178 1032 l 610 1032 z "},"6":{"ha":744,"x_min":69,"x_max":675,"o":"m 583 1032 l 361 642 q 495 614 436 642 q 594 540 554 586 q 654 436 633 494 q 675 317 675 378 q 653 197 675 254 q 590 96 631 139 q 494 27 550 53 q 369 1 438 1 q 244 28 300 1 q 150 99 189 56 q 90 200 111 143 q 69 317 69 257 q 76 401 69 365 q 90 463 82 438 q 111 513 99 492 l 407 1032 l 583 1032 m 222 317 q 234 256 222 285 q 266 206 246 228 q 313 172 286 185 q 369 160 339 160 q 431 172 403 160 q 478 206 458 185 q 510 256 499 228 q 521 317 521 285 q 478 431 521 388 q 369 475 435 475 q 313 463 339 475 q 266 431 286 451 q 234 381 246 410 q 222 317 222 351 z "},"7":{"ha":772,"x_min":83,"x_max":703,"o":"m 126 1029 l 703 1029 l 243 0 l 83 0 l 478 882 l 126 882 l 126 1029 l 126 1029 z "},"8":{"ha":840,"x_min":69,"x_max":771,"o":"m 740 438 q 771 313 771 381 q 740 186 771 246 q 664 88 714 131 q 552 22 615 44 q 421 0 489 0 q 288 22 351 0 q 176 88 225 44 q 99 186 126 129 q 69 313 69 246 q 99 438 69 379 q 176 538 125 493 q 190 549 183 543 q 206 560 197 554 q 167 599 183 578 q 139 644 151 621 q 114 756 114 696 q 139 867 114 814 q 207 954 164 918 q 306 1010 251 990 q 421 1031 361 1031 q 535 1010 481 1031 q 632 954 589 990 q 700 867 678 915 q 726 756 726 815 q 700 644 726 696 q 635 560 676 596 q 649 549 642 554 q 664 538 657 543 q 740 438 714 492 m 421 875 q 361 866 389 875 q 313 840 333 857 q 279 802 292 824 q 267 756 267 781 q 279 709 267 731 q 313 672 292 688 q 361 646 333 656 q 421 636 389 636 q 479 646 451 636 q 528 672 507 656 q 561 709 549 688 q 574 756 574 731 q 561 802 574 781 q 528 840 549 824 q 479 866 507 857 q 421 875 451 875 m 419 153 q 497 165 461 153 q 559 199 532 178 q 601 250 586 221 q 617 313 617 279 q 601 374 617 346 q 559 424 586 403 q 497 458 532 446 q 419 471 461 471 q 342 458 378 471 q 280 424 307 446 q 238 374 253 403 q 222 313 222 346 q 238 250 222 279 q 280 199 253 221 q 342 165 307 178 q 419 153 378 153 z "},"9":{"ha":744,"x_min":69,"x_max":675,"o":"m 161 0 l 383 390 q 249 418 308 390 q 151 492 190 446 q 90 596 111 538 q 69 715 69 654 q 92 835 69 778 q 154 935 114 892 q 251 1005 194 979 q 375 1031 307 1031 q 500 1003 444 1031 q 594 932 556 976 q 654 831 633 888 q 675 715 675 775 q 668 631 675 667 q 654 569 661 594 q 633 519 644 540 l 338 0 l 161 0 m 522 715 q 510 776 522 747 q 478 826 499 804 q 432 860 458 847 q 375 872 406 872 q 314 860 342 872 q 266 826 286 847 q 235 776 246 804 q 224 715 224 747 q 267 601 224 644 q 375 557 310 557 q 432 568 406 557 q 478 600 458 579 q 510 650 499 621 q 522 715 522 679 z "},"\u0000":{"ha":0,"x_min":0,"x_max":0,"o":""},"\r":{"ha":694,"x_min":0,"x_max":0,"o":""}," ":{"ha":833,"x_min":0,"x_max":0,"o":""},"B":{"ha":828,"x_min":83,"x_max":758,"o":"m 617 564 q 688 522 656 554 q 736 441 714 494 q 758 294 758 388 q 735 131 758 190 q 673 43 711 72 q 585 7 635 14 q 485 0 536 0 l 83 0 l 83 1031 l 439 1031 q 566 999 519 1031 q 637 926 613 968 q 668 838 661 883 q 675 764 675 793 q 666 667 675 706 q 646 606 657 629 q 617 564 632 579 m 246 610 l 396 610 q 484 644 449 610 q 519 749 519 678 q 515 789 519 765 q 496 834 510 813 q 458 872 482 856 q 396 888 433 888 l 246 888 l 246 610 m 464 140 q 513 143 489 140 q 556 160 538 146 q 587 208 575 175 q 599 301 599 240 q 588 381 599 350 q 558 430 576 413 q 515 453 539 447 q 464 460 490 460 l 246 460 l 246 140 l 464 140 z "},"C":{"ha":936,"x_min":69,"x_max":867,"o":"m 867 88 q 747 28 799 47 q 636 3 694 8 q 418 27 521 -10 q 238 135 315 64 q 115 303 160 206 q 69 513 69 401 q 110 718 69 621 q 226 888 151 815 q 402 998 300 960 q 628 1028 504 1036 q 720 1012 676 1025 q 800 981 764 999 l 733 847 q 656 874 688 868 q 583 879 624 879 q 445 849 511 879 q 329 769 379 819 q 249 653 279 719 q 219 515 219 588 q 250 376 219 442 q 331 260 281 310 q 447 180 382 210 q 583 150 513 150 q 633 152 610 150 q 678 160 656 154 q 726 178 701 167 q 781 207 750 189 l 867 88 z "},"D":{"ha":914,"x_min":83,"x_max":844,"o":"m 247 1031 q 375 1028 307 1031 q 510 1012 443 1026 q 637 966 576 997 q 743 877 697 935 q 817 731 789 819 q 844 513 844 642 q 817 297 844 385 q 743 151 789 208 q 637 64 697 94 q 510 19 576 33 q 375 2 443 4 q 247 0 307 0 l 83 0 l 83 1031 l 247 1031 m 335 151 q 456 163 393 151 q 572 212 519 174 q 659 322 625 250 q 693 514 693 393 q 677 653 693 594 q 634 753 661 713 q 572 818 607 793 q 497 857 536 843 q 415 875 457 871 q 335 879 374 879 l 235 879 l 235 151 l 335 151 z "},"E":{"ha":786,"x_min":83,"x_max":717,"o":"m 83 1031 l 717 1031 l 717 888 l 235 888 l 235 576 l 624 576 l 624 433 l 235 433 l 235 144 l 717 144 l 717 0 l 83 0 l 83 1031 l 83 1031 z "},"F":{"ha":786,"x_min":83,"x_max":717,"o":"m 235 0 l 83 0 l 83 1031 l 717 1031 l 717 888 l 235 888 l 235 576 l 624 576 l 624 433 l 235 433 l 235 0 l 235 0 z "},"G":{"ha":981,"x_min":69,"x_max":911,"o":"m 911 499 l 911 107 q 761 26 844 51 q 585 0 678 0 q 384 40 478 0 q 220 151 290 81 q 110 315 150 221 q 69 515 69 408 q 110 716 69 622 q 220 880 150 810 q 384 990 290 950 q 585 1031 478 1031 q 693 1020 644 1031 q 782 994 742 1010 q 854 958 822 978 q 911 919 886 938 l 836 771 q 794 807 819 789 q 736 839 768 825 q 667 862 704 853 q 590 871 629 871 q 450 842 515 871 q 336 765 385 814 q 260 651 288 717 q 232 513 232 586 q 260 372 232 438 q 336 258 288 307 q 450 182 385 210 q 590 154 515 154 q 675 166 632 154 q 744 197 718 178 l 744 356 l 447 356 l 532 499 l 911 499 z "},"H":{"ha":868,"x_min":69,"x_max":799,"o":"m 69 1031 l 219 1031 l 219 576 l 647 576 l 647 1031 l 799 1031 l 799 0 l 647 0 l 647 433 l 221 433 l 221 0 l 69 0 l 69 1031 l 69 1031 z "},"I":{"ha":318,"x_min":83,"x_max":235,"o":"m 235 1031 l 235 0 l 83 0 l 83 1031 l 235 1031 l 235 1031 z "},"J":{"ha":622,"x_min":69,"x_max":539,"o":"m 539 319 q 516 185 539 240 q 455 95 493 131 q 368 40 417 60 q 267 12 319 21 q 164 1 215 3 q 69 0 113 0 l 142 151 q 213 154 171 151 q 294 172 256 157 q 360 222 333 188 q 388 319 388 257 l 388 1031 l 539 1031 l 539 319 z "},"K":{"ha":857,"x_min":83,"x_max":788,"o":"m 83 1031 l 235 1031 l 235 571 l 574 1031 l 758 1031 l 457 615 l 788 0 l 617 0 l 358 479 l 235 311 l 235 0 l 83 0 l 83 1031 l 83 1031 z "},"L":{"ha":747,"x_min":83,"x_max":678,"o":"m 678 0 l 83 0 l 83 1031 l 235 1031 l 235 151 l 678 151 l 678 0 l 678 0 z "},"M":{"ha":964,"x_min":69,"x_max":894,"o":"m 69 0 l 69 1031 l 482 560 l 894 1031 l 894 0 l 742 0 l 742 635 l 482 347 l 219 639 l 219 0 l 69 0 l 69 0 z "},"N":{"ha":903,"x_min":69,"x_max":833,"o":"m 69 1031 l 682 379 l 682 1031 l 833 1031 l 833 0 l 219 626 l 219 0 l 69 0 l 69 1031 l 69 1031 z "},"O":{"ha":1171,"x_min":69,"x_max":1101,"o":"m 586 1032 q 787 992 693 1032 q 951 881 881 951 q 1061 717 1021 811 q 1101 517 1101 624 q 1061 316 1101 410 q 951 152 1021 222 q 787 42 881 82 q 586 1 693 1 q 385 42 479 1 q 222 152 292 82 q 110 316 151 222 q 69 517 69 410 q 110 717 69 624 q 222 881 151 811 q 385 992 292 951 q 586 1032 479 1032 m 586 171 q 720 198 657 171 q 831 272 783 225 q 905 381 878 318 q 932 517 932 444 q 905 651 932 589 q 831 761 878 714 q 720 835 783 808 q 586 863 657 863 q 451 835 514 863 q 340 761 388 808 q 266 651 293 714 q 239 517 239 589 q 266 381 239 444 q 340 272 293 318 q 451 198 388 225 q 586 171 514 171 z "},"P":{"ha":807,"x_min":83,"x_max":738,"o":"m 393 1031 q 458 1028 421 1031 q 533 1017 494 1026 q 608 988 571 1008 q 674 929 644 967 q 720 833 703 892 q 738 689 738 774 q 720 546 738 604 q 674 450 703 488 q 609 392 646 413 q 534 362 572 371 q 460 351 496 353 q 394 349 424 349 l 235 349 l 235 0 l 83 0 l 83 1031 l 233 1031 l 393 1031 m 335 500 q 422 501 376 500 q 503 519 467 503 q 563 575 539 536 q 586 689 586 614 q 563 803 586 764 q 503 858 539 842 q 422 877 467 875 q 336 879 378 879 l 235 879 l 235 500 l 335 500 z "},"Q":{"ha":1201,"x_min":69,"x_max":1132,"o":"m 889 0 l 826 60 q 586 0 715 0 q 385 40 479 0 q 222 151 292 81 q 110 315 151 221 q 69 515 69 408 q 110 716 69 622 q 222 880 151 810 q 385 990 292 950 q 586 1031 479 1031 q 787 990 693 1031 q 951 880 881 950 q 1061 716 1021 810 q 1101 515 1101 622 q 1064 322 1101 413 q 961 163 1026 232 l 1132 0 l 889 0 m 239 515 q 266 380 239 443 q 340 270 293 317 q 451 197 388 224 q 586 169 514 169 q 720 197 657 169 q 831 270 783 224 q 905 380 878 317 q 932 515 932 443 q 905 650 932 588 q 831 760 878 713 q 720 834 783 807 q 586 861 657 861 q 451 834 514 861 q 340 760 388 807 q 266 650 293 713 q 239 515 239 588 z "},"R":{"ha":842,"x_min":83,"x_max":772,"o":"m 606 0 l 446 350 q 419 349 432 349 q 394 349 406 349 l 235 349 l 235 0 l 83 0 l 83 1031 l 233 1031 l 393 1031 q 458 1028 421 1031 q 533 1017 494 1026 q 608 988 571 1008 q 674 929 644 967 q 720 833 703 892 q 738 689 738 774 q 726 570 738 621 q 695 483 715 519 q 649 423 675 447 q 594 383 624 399 l 772 0 l 606 0 m 335 500 q 422 501 376 500 q 503 519 467 503 q 563 575 539 536 q 586 689 586 614 q 563 803 586 764 q 503 858 539 842 q 422 877 467 875 q 336 879 378 879 l 235 879 l 235 500 l 335 500 z "},"S":{"ha":871,"x_min":69,"x_max":801,"o":"m 418 1031 q 517 1020 474 1031 q 590 997 560 1010 q 653 965 626 982 l 575 832 q 529 854 554 844 q 480 870 508 863 q 418 878 451 878 q 357 865 382 878 q 316 835 332 853 q 292 795 300 817 q 285 756 285 774 q 323 677 285 703 q 419 635 361 651 q 543 604 476 619 q 667 558 610 589 q 763 470 725 526 q 801 315 801 414 q 775 194 801 251 q 699 93 749 136 q 579 25 650 50 q 418 0 508 0 q 292 15 346 0 q 196 50 238 29 q 124 94 154 71 q 69 132 93 117 l 149 265 q 301 176 231 200 q 418 153 372 153 q 501 163 460 153 q 575 194 542 174 q 628 244 608 214 q 649 315 649 275 q 626 388 649 360 q 568 434 604 415 q 485 465 532 453 q 391 490 439 476 q 297 521 343 503 q 214 569 250 539 q 156 644 178 599 q 133 756 133 689 q 167 888 133 835 q 246 973 200 942 q 340 1017 292 1004 q 418 1031 388 1031 z "},"T":{"ha":868,"x_min":69,"x_max":799,"o":"m 360 0 l 360 879 l 69 879 l 69 1031 l 799 1031 l 799 879 l 511 879 l 511 0 l 360 0 l 360 0 z "},"U":{"ha":906,"x_min":69,"x_max":836,"o":"m 69 1031 l 219 1031 l 219 358 q 228 313 219 347 q 261 243 236 279 q 332 179 286 207 q 453 151 378 151 q 572 179 526 151 q 642 243 617 207 q 675 313 667 279 q 683 357 683 346 l 683 1031 l 836 1031 l 836 358 q 832 321 836 350 q 814 252 828 292 q 775 168 800 213 q 707 86 750 124 q 602 24 664 49 q 453 0 540 0 q 303 23 365 0 q 198 81 240 46 q 130 160 156 117 q 91 242 104 203 q 74 313 78 282 q 69 358 69 344 l 69 1031 z "},"V":{"ha":1044,"x_min":69,"x_max":975,"o":"m 975 1031 l 522 0 l 69 1031 l 256 1031 l 522 422 l 789 1031 l 975 1031 l 975 1031 z "},"W":{"ha":1347,"x_min":69,"x_max":1278,"o":"m 839 408 l 1106 1031 l 1278 1031 l 839 0 l 678 368 l 522 0 l 69 1031 l 240 1031 l 522 408 l 590 569 l 407 990 l 578 990 l 839 408 l 839 408 z "},"X":{"ha":1097,"x_min":69,"x_max":1028,"o":"m 117 1031 l 301 1031 l 547 672 l 794 1031 l 979 1031 l 651 549 l 1028 0 l 844 0 l 547 431 l 253 0 l 69 0 l 444 549 l 117 1031 l 117 1031 z "},"Y":{"ha":949,"x_min":69,"x_max":879,"o":"m 247 1031 l 475 529 l 703 1031 l 879 1031 l 556 321 l 556 0 l 394 0 l 394 321 l 69 1031 l 247 1031 l 247 1031 z "},"Z":{"ha":797,"x_min":69,"x_max":728,"o":"m 124 1031 l 728 1031 l 308 146 l 728 146 l 728 0 l 69 0 l 488 881 l 124 881 l 124 1031 l 124 1031 z "},"a":{"ha":938,"x_min":69,"x_max":840,"o":"m 840 699 l 840 0 l 689 0 l 689 100 q 571 0 640 38 q 421 -37 501 -37 q 285 -7 349 -37 q 173 76 221 24 q 97 199 125 129 q 69 350 69 269 q 97 501 69 431 q 173 624 125 571 q 285 707 221 676 q 421 738 349 738 q 571 701 501 738 q 689 600 640 664 l 689 699 l 840 699 m 461 118 q 550 136 508 118 q 622 185 592 154 q 671 258 653 217 q 689 349 689 300 q 671 438 689 396 q 622 512 653 481 q 550 561 592 543 q 461 579 508 579 q 372 561 414 579 q 299 512 331 543 q 250 438 268 481 q 232 349 232 396 q 250 258 232 300 q 299 185 268 217 q 372 136 331 154 q 461 118 414 118 z "},"b":{"ha":914,"x_min":97,"x_max":844,"o":"m 507 738 q 638 708 576 738 q 746 626 700 678 q 818 504 792 574 q 844 356 844 435 q 818 207 844 276 q 746 85 792 138 q 638 3 700 33 q 507 -26 576 -26 q 362 10 428 -26 q 249 110 296 47 l 249 0 l 97 0 l 97 1031 l 249 1031 l 249 601 q 362 701 296 664 q 507 738 428 738 m 468 126 q 554 144 514 126 q 624 194 594 163 q 670 266 653 225 q 688 354 688 307 q 670 442 688 401 q 624 514 653 483 q 554 563 594 544 q 468 581 514 581 q 383 563 422 581 q 313 514 343 544 q 266 442 283 483 q 249 354 249 401 q 266 266 249 307 q 313 194 283 225 q 383 144 343 163 q 468 126 422 126 z "},"c":{"ha":739,"x_min":69,"x_max":642,"o":"m 642 63 q 555 20 593 35 q 476 1 517 6 q 319 19 393 -7 q 190 97 246 46 q 102 217 135 147 q 69 367 69 288 q 99 515 69 444 q 181 636 128 585 q 308 715 235 688 q 469 738 382 743 q 594 703 538 732 l 535 558 q 484 576 501 572 q 438 581 467 581 q 280 528 333 581 q 226 369 226 475 q 282 210 226 264 q 438 157 338 157 q 472 158 457 157 q 500 165 486 160 q 530 177 514 169 q 568 197 546 185 l 642 63 z "},"d":{"ha":914,"x_min":69,"x_max":817,"o":"m 817 1031 l 817 0 l 665 0 l 665 110 q 553 10 619 47 q 407 -26 486 -26 q 276 3 338 -26 q 168 85 214 33 q 96 207 122 138 q 69 356 69 276 q 96 504 69 435 q 168 626 122 574 q 276 708 214 678 q 407 738 338 738 q 553 701 486 738 q 665 601 619 664 l 665 1031 l 817 1031 m 446 126 q 531 144 492 126 q 601 194 571 163 q 648 266 631 225 q 665 354 665 307 q 648 442 665 401 q 601 514 631 483 q 531 563 571 544 q 446 581 492 581 q 360 563 400 581 q 291 514 321 544 q 244 442 261 483 q 226 354 226 401 q 244 266 226 307 q 291 194 261 225 q 360 144 321 163 q 446 126 400 126 z "},"e":{"ha":853,"x_min":69,"x_max":754,"o":"m 428 742 q 560 719 506 742 q 650 661 614 696 q 708 584 686 626 q 740 503 729 542 q 752 434 750 464 q 754 393 754 404 l 754 321 l 221 321 q 232 277 221 306 q 267 220 243 249 q 331 171 292 192 q 428 150 371 150 q 533 161 486 150 q 614 186 579 172 q 686 222 654 201 l 686 68 q 645 43 675 56 q 576 22 615 31 q 497 6 538 13 q 428 0 457 0 q 380 4 413 0 q 307 23 347 8 q 225 64 267 38 q 149 133 183 90 q 92 240 114 176 q 69 392 69 303 q 94 515 69 453 q 164 628 118 578 q 276 710 210 678 q 428 742 343 742 m 603 444 q 576 528 597 492 q 524 586 558 560 q 429 613 490 613 q 328 592 368 613 q 264 545 288 572 q 231 490 240 518 q 221 444 221 461 l 603 444 z "},"f":{"ha":603,"x_min":69,"x_max":506,"o":"m 506 883 q 416 879 449 883 q 367 865 383 875 q 345 836 350 854 q 340 790 340 818 l 340 717 l 506 717 l 506 565 l 340 565 l 340 0 l 189 0 l 189 565 l 69 565 l 69 717 l 188 717 l 188 793 q 221 928 188 881 q 303 997 254 975 q 406 1022 351 1018 q 506 1026 461 1026 l 506 883 l 506 883 z "},"g":{"ha":885,"x_min":69,"x_max":774,"o":"m 774 699 l 774 -1 q 760 -103 774 -50 q 706 -200 746 -156 q 593 -274 665 -244 q 403 -303 521 -303 q 271 -294 322 -303 q 188 -274 219 -285 q 131 -243 151 -260 l 131 -93 q 200 -121 160 -108 q 285 -140 235 -132 q 403 -149 336 -149 q 512 -135 469 -149 q 579 -99 554 -121 q 613 -51 604 -78 q 622 3 622 -24 l 622 88 q 523 24 578 47 q 406 0 468 0 q 275 29 336 0 q 168 108 214 58 q 96 226 122 158 q 69 369 69 293 q 96 514 69 446 q 168 632 122 582 q 275 711 214 682 q 406 740 336 740 q 523 717 468 740 q 622 651 578 693 l 622 699 l 774 699 m 425 154 q 499 170 464 154 q 562 215 535 186 q 605 281 589 243 q 622 361 621 318 l 622 382 q 605 463 621 425 q 562 528 589 500 q 499 573 535 557 q 425 589 464 589 q 349 572 385 589 q 285 525 313 554 q 243 456 258 496 q 228 372 228 417 q 243 287 228 326 q 285 218 258 247 q 349 172 313 189 q 425 154 385 154 z "},"h":{"ha":806,"x_min":97,"x_max":722,"o":"m 249 290 l 249 0 l 97 0 l 97 1031 l 247 1031 l 247 576 q 297 658 265 622 q 369 716 325 690 q 479 742 413 742 q 571 724 526 742 q 649 673 615 706 q 702 596 682 640 q 722 497 722 551 l 722 0 l 572 0 l 572 418 q 566 478 572 450 q 545 529 560 507 q 506 564 531 551 q 447 576 482 576 q 383 554 418 576 q 319 493 349 532 q 269 402 289 454 q 249 290 249 350 z "},"i":{"ha":318,"x_min":69,"x_max":221,"o":"m 221 864 l 69 864 l 69 1031 l 221 1031 l 221 864 m 69 740 l 221 740 l 221 0 l 69 0 l 69 740 z "},"j":{"ha":318,"x_min":69,"x_max":221,"o":"m 221 864 l 69 864 l 69 1031 l 221 1031 l 221 864 m 69 740 l 221 740 l 221 -303 l 69 -303 l 69 740 z "},"k":{"ha":790,"x_min":97,"x_max":721,"o":"m 97 1031 l 249 1031 l 249 425 l 483 740 l 668 740 l 471 469 l 721 0 l 551 0 l 372 333 l 249 165 l 249 0 l 97 0 l 97 1031 l 97 1031 z "},"l":{"ha":318,"x_min":69,"x_max":221,"o":"m 221 0 l 69 0 l 69 1031 l 221 1031 l 221 0 l 221 0 z "},"m":{"ha":1264,"x_min":97,"x_max":1167,"o":"m 97 0 l 97 740 l 249 740 l 249 638 q 297 689 267 665 q 365 724 324 708 q 468 740 406 740 q 569 722 528 740 q 635 680 610 703 q 671 636 660 657 q 682 611 682 615 q 693 626 682 607 q 732 671 704 646 q 806 718 760 696 q 922 740 851 740 q 1040 715 993 740 q 1115 656 1086 690 q 1155 586 1143 621 q 1167 532 1167 551 l 1167 0 l 1014 0 l 1014 463 q 1002 501 1014 481 q 972 536 990 521 q 928 562 953 551 q 878 572 904 572 q 753 528 801 572 q 704 394 704 483 l 704 0 l 551 0 l 551 460 q 522 538 551 503 q 438 572 493 572 q 366 561 400 572 q 306 528 332 550 q 264 472 279 506 q 249 394 249 439 l 249 0 l 97 0 z "},"n":{"ha":799,"x_min":97,"x_max":701,"o":"m 97 0 l 97 740 l 247 740 l 247 638 q 296 689 265 665 q 363 724 322 708 q 467 740 404 740 q 591 716 544 740 q 662 651 638 692 q 694 558 686 610 q 701 450 701 506 l 701 0 l 550 0 l 550 460 q 521 538 550 503 q 436 572 492 572 q 365 561 399 572 q 305 528 331 550 q 263 472 279 506 q 247 394 247 439 l 247 0 l 97 0 z "},"o":{"ha":879,"x_min":69,"x_max":810,"o":"m 440 740 q 584 711 517 740 q 701 632 651 682 q 781 514 751 582 q 810 369 810 446 q 781 226 810 293 q 701 108 751 158 q 584 29 651 58 q 440 0 517 0 q 297 29 364 0 q 178 108 229 58 q 99 226 128 158 q 69 369 69 293 q 99 514 69 446 q 178 632 128 582 q 297 711 229 682 q 440 740 364 740 m 440 144 q 528 162 488 144 q 600 210 569 179 q 649 281 631 240 q 667 369 667 322 q 649 458 667 417 q 600 529 631 499 q 528 578 569 560 q 440 596 488 596 q 352 578 393 596 q 281 529 311 560 q 232 458 250 499 q 214 369 214 417 q 232 281 214 322 q 281 210 250 240 q 352 162 311 179 q 440 144 393 144 z "},"p":{"ha":908,"x_min":97,"x_max":839,"o":"m 481 739 q 621 710 556 739 q 735 631 686 681 q 811 513 783 581 q 839 369 839 446 q 811 226 839 293 q 735 108 783 158 q 621 29 686 58 q 481 0 556 0 q 355 24 414 0 q 249 89 296 47 l 249 -303 l 97 -303 l 97 740 l 249 740 l 249 651 q 355 715 296 692 q 481 739 414 739 m 460 154 q 541 172 503 154 q 608 218 579 189 q 653 287 636 247 q 669 371 669 326 q 653 456 669 417 q 608 525 636 496 q 541 571 579 554 q 460 588 503 588 q 377 571 415 588 q 310 525 339 554 q 265 456 282 496 q 249 371 249 417 q 265 287 249 326 q 310 218 282 247 q 377 172 339 189 q 460 154 415 154 z "},"q":{"ha":908,"x_min":69,"x_max":811,"o":"m 811 740 l 811 -303 l 660 -303 l 660 89 q 553 24 613 47 q 428 0 494 0 q 288 29 353 0 q 174 108 222 58 q 97 226 125 158 q 69 369 69 293 q 97 513 69 446 q 174 631 125 581 q 288 710 222 681 q 428 739 353 739 q 553 715 494 739 q 660 651 613 692 l 660 740 l 811 740 m 449 154 q 531 172 492 154 q 598 218 569 189 q 643 287 626 247 q 660 371 660 326 q 643 456 660 417 q 598 525 626 496 q 531 571 569 554 q 449 588 492 588 q 367 571 406 588 q 301 525 329 554 q 256 456 272 496 q 239 371 239 417 q 256 287 239 326 q 301 218 272 247 q 367 172 329 189 q 449 154 406 154 z "},"r":{"ha":600,"x_min":118,"x_max":531,"o":"m 118 740 l 269 740 l 269 649 q 325 694 289 674 q 406 726 356 711 q 531 740 456 740 l 531 589 q 447 582 493 589 q 362 559 401 575 q 296 517 322 543 q 269 451 269 490 l 269 0 l 118 0 l 118 740 z "},"s":{"ha":664,"x_min":69,"x_max":594,"o":"m 319 739 q 390 731 360 739 q 443 715 421 724 q 488 692 468 704 l 414 578 q 390 594 404 588 q 361 607 379 601 q 319 613 343 613 q 248 590 269 613 q 226 542 226 568 q 253 487 226 504 q 322 459 281 469 q 410 440 363 449 q 499 408 458 431 q 567 343 540 385 q 594 226 594 301 q 576 139 594 181 q 522 67 557 97 q 435 18 486 36 q 319 0 383 0 q 229 10 268 0 q 160 35 190 21 q 108 67 131 50 q 69 94 86 83 l 144 208 q 251 146 203 161 q 319 131 300 131 q 415 156 392 131 q 439 226 439 182 q 412 290 439 269 q 344 322 385 310 q 256 344 304 335 q 168 375 208 354 q 101 434 128 396 q 74 542 74 472 q 95 632 74 594 q 152 693 117 669 q 231 728 188 717 q 319 739 275 739 z "},"t":{"ha":631,"x_min":97,"x_max":533,"o":"m 533 718 l 533 567 l 368 567 l 368 0 l 214 0 l 214 567 l 97 567 l 97 718 l 214 718 l 214 976 l 368 1031 l 368 718 l 533 718 l 533 718 z "},"u":{"ha":744,"x_min":97,"x_max":647,"o":"m 97 740 l 249 740 l 249 257 q 252 231 249 249 q 268 196 256 214 q 306 165 281 178 q 372 151 331 151 q 440 165 415 151 q 476 196 464 178 q 492 231 489 214 q 496 256 496 247 l 496 740 l 647 740 l 647 257 q 644 230 647 251 q 632 180 642 208 q 603 120 622 151 q 554 62 585 89 q 479 17 524 35 q 372 0 435 0 q 265 17 310 0 q 189 58 219 33 q 140 114 158 83 q 113 174 122 144 q 100 225 103 203 q 97 257 97 247 l 97 740 z "},"v":{"ha":883,"x_min":69,"x_max":814,"o":"m 814 740 l 442 0 l 69 740 l 250 740 l 442 351 l 633 740 l 814 740 l 814 740 z "},"w":{"ha":1178,"x_min":69,"x_max":1108,"o":"m 1108 742 l 736 1 l 589 294 l 442 1 l 69 742 l 250 742 l 442 353 l 589 651 l 678 471 l 678 471 l 736 353 l 928 742 l 1108 742 l 1108 742 z "},"x":{"ha":882,"x_min":97,"x_max":785,"o":"m 131 740 l 315 740 l 440 535 l 567 740 l 750 740 l 515 394 l 785 0 l 603 0 l 440 257 l 281 0 l 97 0 l 367 394 l 131 740 l 131 740 z "},"y":{"ha":928,"x_min":97,"x_max":831,"o":"m 97 740 l 271 740 l 465 264 l 657 740 l 831 740 l 411 -303 l 235 -303 l 376 44 l 97 740 l 97 740 z "},"z":{"ha":653,"x_min":69,"x_max":583,"o":"m 129 740 l 583 740 l 306 150 l 563 150 l 563 0 l 69 0 l 347 590 l 129 590 l 129 740 l 129 740 z "},"A":{"ha":1044,"x_min":69,"x_max":975,"o":"m 821 0 l 761 140 l 282 140 l 222 0 l 69 0 l 522 1031 l 975 0 l 821 0 m 347 292 l 696 292 l 522 699 l 347 292 z "},"˝":{"ha":542,"x_min":69,"x_max":472,"o":"m 289 1031 l 222 781 l 69 781 l 136 1031 l 289 1031 m 472 1031 l 406 781 l 253 781 l 319 1031 l 472 1031 z "},",":{"ha":365,"x_min":69,"x_max":289,"o":"m 289 164 l 222 -86 l 69 -86 l 136 164 l 289 164 l 289 164 z "},"!":{"ha":319,"x_min":83,"x_max":236,"o":"m 83 290 l 83 1031 l 235 1031 l 235 290 l 83 290 l 83 290 m 236 151 l 83 151 l 83 0 l 236 0 l 236 151 l 236 151 z "},":":{"ha":292,"x_min":69,"x_max":222,"o":"m 222 151 l 222 0 l 69 0 l 69 151 l 222 151 m 222 740 l 222 588 l 69 588 l 69 740 l 222 740 z "},";":{"ha":358,"x_min":69,"x_max":289,"o":"m 289 743 l 289 590 l 136 590 l 136 743 l 289 743 m 289 167 l 221 -83 l 69 -83 l 136 167 l 289 167 z "},".":{"ha":319,"x_min":83,"x_max":236,"o":"m 236 151 l 236 0 l 83 0 l 83 151 l 236 151 l 236 151 z "},"'":{"ha":275,"x_min":69,"x_max":206,"o":"m 206 1031 l 164 875 l 69 875 l 111 1031 l 206 1031 l 206 1031 z "},"-":{"ha":688,"x_min":69,"x_max":618,"o":"m 618 325 l 69 325 l 69 476 l 618 476 l 618 325 l 618 325 z "},"—":{"ha":1085,"x_min":69,"x_max":1015,"o":"m 1015 325 l 69 325 l 69 476 l 1015 476 l 1015 325 l 1015 325 z "},"_":{"ha":1085,"x_min":69,"x_max":1015,"o":"m 1015 0 l 69 0 l 69 151 l 1015 151 l 1015 0 l 1015 0 z "},"–":{"ha":688,"x_min":69,"x_max":618,"o":"m 618 325 l 69 325 l 69 476 l 618 476 l 618 325 z "},"|":{"ha":318,"x_min":83,"x_max":235,"o":"m 235 -56 l 83 -56 l 83 1086 l 235 1086 l 235 -56 l 235 -56 z "},"/":{"ha":576,"x_min":69,"x_max":507,"o":"m 221 -56 l 69 -56 l 356 1086 l 507 1086 l 221 -56 l 221 -56 z "},"\\":{"ha":576,"x_min":69,"x_max":507,"o":"m 356 -56 l 69 1086 l 221 1086 l 507 -56 l 356 -56 l 356 -56 z "},"Á":{"ha":1044,"x_min":69,"x_max":975,"o":"m 522 1031 l 975 0 l 821 0 l 761 140 l 282 140 l 222 0 l 69 0 l 522 1031 m 347 292 l 696 292 l 522 699 l 347 292 m 611 1201 l 569 1046 l 475 1046 l 517 1201 l 611 1201 z "},"À":{"ha":1043,"x_min":69,"x_max":974,"o":"m 521 1031 l 974 0 l 819 0 l 760 140 l 282 140 l 221 0 l 69 0 l 521 1031 m 346 292 l 694 292 l 521 699 l 346 292 m 568 1046 l 474 1046 l 432 1201 l 526 1201 l 568 1046 z "},"É":{"ha":786,"x_min":83,"x_max":717,"o":"m 717 888 l 235 888 l 235 576 l 624 576 l 624 433 l 235 433 l 235 144 l 717 144 l 717 0 l 83 0 l 83 1031 l 717 1031 l 717 888 m 468 1201 l 426 1046 l 332 1046 l 374 1201 l 468 1201 z "},"È":{"ha":786,"x_min":83,"x_max":717,"o":"m 717 888 l 235 888 l 235 576 l 624 576 l 624 433 l 235 433 l 235 144 l 717 144 l 717 0 l 83 0 l 83 1031 l 717 1031 l 717 888 m 468 1046 l 374 1046 l 332 1201 l 426 1201 l 468 1046 z "},"Ó":{"ha":1171,"x_min":69,"x_max":1101,"o":"m 586 1031 q 787 990 693 1031 q 951 880 881 950 q 1061 716 1021 810 q 1101 515 1101 622 q 1061 315 1101 408 q 951 151 1021 221 q 787 40 881 81 q 586 0 693 0 q 385 40 479 0 q 222 151 292 81 q 110 315 151 221 q 69 515 69 408 q 110 716 69 622 q 222 880 151 810 q 385 990 292 950 q 586 1031 479 1031 m 586 169 q 720 197 657 169 q 831 270 783 224 q 905 380 878 317 q 932 515 932 443 q 905 650 932 588 q 831 760 878 713 q 720 834 783 807 q 586 861 657 861 q 451 834 514 861 q 340 760 388 807 q 266 650 293 713 q 239 515 239 588 q 266 380 239 443 q 340 270 293 317 q 451 197 388 224 q 586 169 514 169 m 631 1046 l 535 1046 l 578 1201 l 672 1201 l 631 1046 z "},"Ò":{"ha":1169,"x_min":69,"x_max":1100,"o":"m 585 1031 q 785 990 692 1031 q 949 880 879 950 q 1060 716 1019 810 q 1100 515 1100 622 q 1060 315 1100 408 q 949 151 1019 221 q 785 40 879 81 q 585 0 692 0 q 384 40 478 0 q 220 151 290 81 q 110 315 150 221 q 69 515 69 408 q 110 716 69 622 q 220 880 150 810 q 384 990 290 950 q 585 1031 478 1031 m 585 169 q 719 197 657 169 q 829 270 782 224 q 903 380 876 317 q 931 515 931 443 q 903 650 931 588 q 829 760 876 713 q 719 834 782 807 q 585 861 657 861 q 449 834 513 861 q 340 760 386 807 q 266 650 293 713 q 239 515 239 588 q 266 380 239 443 q 340 270 293 317 q 449 197 386 224 q 585 169 513 169 m 538 1046 l 496 1201 l 590 1201 l 632 1046 l 538 1046 z "},"Ú":{"ha":904,"x_min":69,"x_max":835,"o":"m 835 1031 l 835 358 q 831 303 835 338 q 813 228 826 268 q 774 147 800 188 q 706 74 749 107 q 602 21 664 42 q 453 0 540 0 q 303 21 365 0 q 198 74 240 42 q 130 147 156 107 q 91 228 104 188 q 74 303 78 268 q 69 358 69 338 l 69 1031 l 219 1031 l 219 358 q 228 290 219 326 q 261 223 236 254 q 332 172 286 192 q 453 151 378 151 q 572 172 526 151 q 642 223 617 192 q 675 290 667 254 q 683 357 683 325 l 683 1031 l 835 1031 m 500 1046 l 404 1046 l 447 1201 l 542 1201 l 500 1046 z "},"Ù":{"ha":906,"x_min":69,"x_max":836,"o":"m 836 1031 l 836 358 q 832 303 836 338 q 814 228 828 268 q 775 147 800 188 q 707 74 750 107 q 602 21 664 42 q 453 0 540 0 q 303 21 365 0 q 198 74 240 42 q 130 147 156 107 q 91 228 104 188 q 74 303 78 268 q 69 358 69 338 l 69 1031 l 219 1031 l 219 358 q 228 290 219 326 q 261 223 236 254 q 332 172 286 192 q 453 151 378 151 q 572 172 526 151 q 642 223 617 192 q 675 290 667 254 q 683 357 683 325 l 683 1031 l 836 1031 m 401 1046 l 360 1201 l 454 1201 l 496 1046 l 401 1046 z "}}}
